<svg width="143" height="18" viewBox="0 0 143 18" fill="none" xmlns="http://www.w3.org/2000/svg">
<path d="M10.4156 6.14C10.9756 6.14 11.4656 6.2675 11.8856 6.5225C12.3056 6.7725 12.6281 7.125 12.8531 7.58C13.0831 8.035 13.1981 8.56 13.1981 9.155V14H11.6231V9.3275C11.6231 8.7525 11.4831 8.305 11.2031 7.985C10.9231 7.665 10.5331 7.505 10.0331 7.505C9.65807 7.505 9.32807 7.595 9.04307 7.775C8.76307 7.955 8.54557 8.2125 8.39057 8.5475C8.24057 8.8775 8.16557 9.265 8.16557 9.71V14H6.61307V9.3275C6.61307 8.7525 6.47307 8.305 6.19307 7.985C5.91307 7.665 5.52307 7.505 5.02307 7.505C4.64807 7.505 4.31807 7.595 4.03307 7.775C3.75307 7.955 3.53557 8.2125 3.38057 8.5475C3.23057 8.8775 3.15557 9.265 3.15557 9.71V14H1.58057V6.32H3.11057V7.4075C3.36557 7.0025 3.69057 6.69 4.08557 6.47C4.48057 6.25 4.92807 6.14 5.42807 6.14C5.98807 6.14 6.47557 6.27 6.89057 6.53C7.31057 6.79 7.63057 7.155 7.85057 7.625C8.11557 7.155 8.46807 6.79 8.90807 6.53C9.34807 6.27 9.85057 6.14 10.4156 6.14ZM18.3365 6.14C18.9315 6.14 19.459 6.25 19.919 6.47C20.379 6.69 20.7365 6.9975 20.9915 7.3925C21.2515 7.7875 21.3815 8.24 21.3815 8.75V14H19.859V12.935C19.594 13.33 19.2465 13.6375 18.8165 13.8575C18.3865 14.0725 17.9015 14.18 17.3615 14.18C16.8615 14.18 16.414 14.0875 16.019 13.9025C15.624 13.7125 15.314 13.45 15.089 13.115C14.869 12.775 14.759 12.3925 14.759 11.9675C14.759 11.5575 14.8615 11.185 15.0665 10.85C15.2715 10.51 15.5565 10.2325 15.9215 10.0175C16.2915 9.7975 16.7115 9.665 17.1815 9.62L19.3265 9.4025C19.4815 9.3875 19.604 9.3225 19.694 9.2075C19.789 9.0875 19.8365 8.925 19.8365 8.72C19.8315 8.32 19.6865 8 19.4015 7.76C19.1215 7.515 18.7515 7.3925 18.2915 7.3925C17.8215 7.3925 17.4315 7.5125 17.1215 7.7525C16.8165 7.9875 16.644 8.3 16.604 8.69H15.0665C15.1115 8.195 15.279 7.755 15.569 7.37C15.864 6.98 16.2515 6.6775 16.7315 6.4625C17.2115 6.2475 17.7465 6.14 18.3365 6.14ZM17.834 12.9875C18.214 12.9875 18.5565 12.905 18.8615 12.74C19.1665 12.575 19.404 12.3475 19.574 12.0575C19.749 11.7675 19.8365 11.44 19.8365 11.075V10.3475L17.5115 10.595C17.1715 10.635 16.889 10.77 16.664 11C16.439 11.225 16.3265 11.495 16.3265 11.81C16.3265 12.04 16.389 12.245 16.514 12.425C16.644 12.605 16.8215 12.745 17.0465 12.845C17.2765 12.94 17.539 12.9875 17.834 12.9875ZM30.7996 6.32H30.8071V14H29.2771V12.8C28.9721 13.24 28.5896 13.58 28.1296 13.82C27.6746 14.06 27.1671 14.18 26.6071 14.18C25.9171 14.18 25.2971 14.01 24.7471 13.67C24.1971 13.325 23.7646 12.8475 23.4496 12.2375C23.1396 11.6275 22.9846 10.935 22.9846 10.16C22.9846 9.385 23.1396 8.6925 23.4496 8.0825C23.7646 7.4725 24.1971 6.9975 24.7471 6.6575C25.2971 6.3125 25.9171 6.14 26.6071 6.14C27.1671 6.14 27.6746 6.26 28.1296 6.5C28.5896 6.74 28.9721 7.08 29.2771 7.52V7.5125L29.2321 3.5H30.7996V6.32ZM26.8921 12.8C27.3321 12.8 27.7296 12.69 28.0846 12.47C28.4396 12.245 28.7196 11.9325 28.9246 11.5325C29.1296 11.1325 29.2321 10.675 29.2321 10.16C29.2321 9.645 29.1296 9.1875 28.9246 8.7875C28.7196 8.3875 28.4396 8.0775 28.0846 7.8575C27.7296 7.6325 27.3321 7.52 26.8921 7.52C26.4571 7.52 26.0671 7.6325 25.7221 7.8575C25.3771 8.0775 25.1071 8.3875 24.9121 8.7875C24.7171 9.1875 24.6196 9.645 24.6196 10.16C24.6196 10.675 24.7171 11.1325 24.9121 11.5325C25.1071 11.9325 25.3771 12.245 25.7221 12.47C26.0671 12.69 26.4571 12.8 26.8921 12.8ZM40.0511 10.5125H34.0586C34.0936 10.9875 34.2136 11.405 34.4186 11.765C34.6236 12.12 34.8936 12.395 35.2286 12.59C35.5686 12.785 35.9561 12.8825 36.3911 12.8825C36.6861 12.8825 36.9661 12.8375 37.2311 12.7475C37.4961 12.6525 37.7236 12.525 37.9136 12.365C38.1086 12.205 38.2411 12.025 38.3111 11.825H39.8786C39.7936 12.27 39.5811 12.6725 39.2411 13.0325C38.9061 13.3875 38.4811 13.6675 37.9661 13.8725C37.4561 14.0775 36.9061 14.18 36.3161 14.18C35.5861 14.18 34.9261 14.005 34.3361 13.655C33.7461 13.305 33.2836 12.825 32.9486 12.215C32.6136 11.6 32.4461 10.915 32.4461 10.16C32.4461 9.405 32.6136 8.7225 32.9486 8.1125C33.2836 7.4975 33.7461 7.015 34.3361 6.665C34.9261 6.315 35.5861 6.14 36.3161 6.14C37.0361 6.14 37.6786 6.3125 38.2436 6.6575C38.8136 6.9975 39.2561 7.4725 39.5711 8.0825C39.8911 8.6925 40.0511 9.385 40.0511 10.16V10.5125ZM36.3161 7.3925C35.7211 7.3925 35.2261 7.575 34.8311 7.94C34.4361 8.3 34.1886 8.795 34.0886 9.425H38.4461C38.3511 8.78 38.1186 8.28 37.7486 7.925C37.3786 7.57 36.9011 7.3925 36.3161 7.3925ZM46.5882 14H45.0132V6.32H46.5882V14ZM44.9757 5.0975V3.5H46.6182V5.0975H44.9757ZM52.7364 6.14C53.3114 6.14 53.8114 6.265 54.2364 6.515C54.6614 6.765 54.9889 7.1175 55.2189 7.5725C55.4489 8.0275 55.5639 8.555 55.5639 9.155V14H53.9889V9.32C53.9889 8.745 53.8439 8.2975 53.5539 7.9775C53.2639 7.6575 52.8589 7.4975 52.3389 7.4975C51.9489 7.4975 51.6089 7.5875 51.3189 7.7675C51.0289 7.9425 50.8039 8.195 50.6439 8.525C50.4889 8.85 50.4114 9.235 50.4114 9.68V14H48.8364V6.32H50.3664V7.3625C50.6214 6.9675 50.9489 6.665 51.3489 6.455C51.7539 6.245 52.2164 6.14 52.7364 6.14Z" fill="#73737D"/>
<path d="M72.0228 0.679688C73.3196 0.679688 74.4187 2.25991 74.8041 4.44928C75.2619 2.33277 76.3279 0.842796 77.6966 0.711749C79.7671 0.513646 81.7468 3.50024 82.1182 7.38235C82.4896 11.2644 81.1122 14.5722 79.0417 14.7703C77.0485 14.9609 75.1395 12.1999 74.6685 8.52987C74.1979 10.383 73.1904 11.6638 72.0228 11.6638C70.9003 11.6637 69.926 10.4797 69.4343 8.74148C68.9182 12.3056 67.0444 14.9574 65.0896 14.7703C63.0192 14.572 61.642 11.2641 62.0137 7.38206C62.3855 3.49997 64.3655 0.513774 66.4359 0.712041C67.7592 0.838847 68.7992 2.23581 69.2804 4.24117C69.6971 2.16049 70.7675 0.679771 72.0228 0.679688Z" fill="url(#paint0_linear_14402_11727)"/>
<path d="M87.6367 1.59375H89.9501L94.1718 11.2343L94.3968 11.9004L94.6129 11.2343L98.7445 1.59375H101.103V14.1958H99.2846V4.69926L99.2936 4.3482L95.0899 14.1958H93.6587L89.437 4.41121L89.446 4.69926V14.1958H87.6367V1.59375Z" fill="#73737D"/>
<path d="M107.49 4.76227C108.223 4.76227 108.859 4.89429 109.399 5.15833C109.939 5.42238 110.353 5.80044 110.641 6.29252C110.929 6.7846 111.073 7.36669 111.073 8.0388V14.1958H109.336V12.9266C109.048 13.4007 108.661 13.7667 108.175 14.0248C107.688 14.2828 107.13 14.4118 106.5 14.4118C105.912 14.4118 105.384 14.2978 104.916 14.0698C104.448 13.8357 104.082 13.5147 103.818 13.1066C103.554 12.6986 103.422 12.2395 103.422 11.7294C103.422 11.2313 103.548 10.7752 103.8 10.3612C104.052 9.94111 104.403 9.59606 104.853 9.32601C105.303 9.05597 105.813 8.89094 106.383 8.83093L108.733 8.56089C109.039 8.53088 109.234 8.36286 109.318 8.05681V7.84077C109.318 7.34869 109.153 6.95863 108.823 6.67058C108.493 6.38253 108.046 6.23851 107.481 6.23851C107.103 6.23851 106.77 6.29852 106.482 6.41854C106.194 6.53256 105.966 6.68858 105.798 6.88661C105.63 7.07865 105.525 7.28868 105.483 7.51672H103.746C103.818 7.00063 104.019 6.53256 104.349 6.11249C104.679 5.69242 105.114 5.36237 105.654 5.12233C106.194 4.88229 106.806 4.76227 107.49 4.76227ZM105.222 11.5854C105.222 11.8614 105.297 12.1075 105.447 12.3235C105.597 12.5395 105.804 12.7076 106.068 12.8276C106.338 12.9476 106.647 13.0076 106.995 13.0076C107.451 13.0076 107.854 12.9146 108.202 12.7286C108.556 12.5365 108.829 12.2725 109.021 11.9364C109.219 11.5944 109.318 11.1983 109.318 10.7482V9.71308L106.734 10.0101C106.29 10.0581 105.927 10.2322 105.645 10.5322C105.363 10.8263 105.222 11.1773 105.222 11.5854Z" fill="#73737D"/>
<path d="M116.821 14.1958C116.353 14.1958 115.933 14.0968 115.561 13.8988C115.189 13.7007 114.898 13.4277 114.688 13.0796C114.478 12.7316 114.373 12.3385 114.373 11.9004L114.364 6.50855H112.744L112.753 4.9783H113.761C113.983 4.9783 114.163 4.90929 114.301 4.77127C114.445 4.62725 114.517 4.44121 114.517 4.21318V2.72794H116.119V4.9783H118.595L118.586 6.50855H116.11L116.119 11.7204C116.119 11.9904 116.209 12.2155 116.389 12.3955C116.569 12.5755 116.791 12.6656 117.055 12.6656H118.586V14.1958H116.821Z" fill="#73737D"/>
<path d="M123.854 14.1958C123.386 14.1958 122.966 14.0968 122.594 13.8988C122.221 13.7007 121.93 13.4277 121.72 13.0796C121.51 12.7316 121.405 12.3385 121.405 11.9004L121.396 6.50855H119.776L119.785 4.9783H120.793C121.015 4.9783 121.195 4.90929 121.333 4.77127C121.477 4.62725 121.549 4.44121 121.549 4.21318V2.72794H123.152V4.9783H125.627L125.618 6.50855H123.143L123.152 11.7204C123.152 11.9904 123.242 12.2155 123.422 12.3955C123.602 12.5755 123.824 12.6656 124.088 12.6656H125.618V14.1958H123.854Z" fill="#73737D"/>
<path d="M131.59 14.4118C130.708 14.4118 129.91 14.2048 129.196 13.7907C128.482 13.3767 127.921 12.8006 127.513 12.0625C127.105 11.3243 126.901 10.4932 126.901 9.56905C126.901 8.6629 127.105 7.84377 127.513 7.11165C127.927 6.37953 128.491 5.80644 129.205 5.39237C129.925 4.9723 130.72 4.76227 131.59 4.76227C132.478 4.76227 133.268 4.9663 133.958 5.37437C134.654 5.77643 135.194 6.34353 135.578 7.07565C135.962 7.80777 136.154 8.6419 136.154 9.57805V9.99212H128.683C128.737 10.5802 128.89 11.0963 129.142 11.5404C129.4 11.9784 129.736 12.3175 130.15 12.5575C130.57 12.7916 131.05 12.9086 131.59 12.9086C132.1 12.9086 132.556 12.8096 132.959 12.6115C133.361 12.4135 133.688 12.1315 133.94 11.7654H135.848C135.506 12.5875 134.96 13.2357 134.21 13.7097C133.466 14.1778 132.592 14.4118 131.59 14.4118ZM134.336 8.73192C134.198 7.96979 133.883 7.36669 133.391 6.92262C132.905 6.47855 132.304 6.25651 131.59 6.25651C130.834 6.25651 130.201 6.47855 129.691 6.92262C129.187 7.36669 128.866 7.96979 128.728 8.73192H134.336Z" fill="#73737D"/>
<path d="M138.239 4.9783H139.985V6.43654C140.273 5.93846 140.645 5.5574 141.101 5.29335C141.563 5.02931 142.085 4.89729 142.667 4.89729H143.001V6.69758L142.523 6.68858C142.007 6.68858 141.557 6.7876 141.173 6.98563C140.795 7.17766 140.501 7.45371 140.291 7.81377C140.087 8.17382 139.985 8.59689 139.985 9.08297V14.1958H138.239V4.9783Z" fill="#73737D"/>
<defs>
<linearGradient id="paint0_linear_14402_11727" x1="61.9531" y1="0.679687" x2="61.9531" y2="14.7656" gradientUnits="userSpaceOnUse">
<stop stop-color="#C3C3FF"/>
<stop offset="1" stop-color="#1A1ABC"/>
</linearGradient>
</defs>
</svg>
