<svg width="224" height="166" viewBox="0 0 224 166" fill="none" xmlns="http://www.w3.org/2000/svg">
<mask id="path-1-inside-1_14470_10962" fill="white">
<path d="M224 9.60254H223.998C220.464 9.60275 217.598 12.4676 217.598 16.002C217.598 19.5363 220.464 22.4021 223.998 22.4023L224 22.4014V28.8018H223.998C220.464 28.802 217.598 31.6677 217.598 35.2021C217.598 38.7365 220.464 41.6023 223.998 41.6025L224 41.6016V48.002H223.998C220.464 48.0022 217.598 50.8679 217.598 54.4023C217.598 57.9366 220.464 60.8015 223.998 60.8018L224 60.8008V67.2021H223.998C220.464 67.2024 217.598 70.068 217.598 73.6025C217.598 77.1367 220.464 80.0017 223.998 80.002L224 80.001V86.4023H223.998C220.464 86.4026 217.598 89.2674 217.598 92.8018C217.598 96.3361 220.464 99.2019 223.998 99.2021L224 99.2012V105.603H223.998C220.464 105.603 217.598 108.468 217.598 112.002C217.598 115.536 220.464 118.402 223.998 118.402L224 118.401V124.802H223.998C220.464 124.802 217.598 127.668 217.598 131.202C217.598 134.736 220.464 137.602 223.998 137.603L224 137.602V144.002H223.998C220.464 144.002 217.598 146.868 217.598 150.402C217.598 153.937 220.464 156.802 223.998 156.802L224 156.801V166H214.385C214.177 162.653 211.398 160.002 207.998 160.002C204.599 160.002 201.82 162.653 201.612 166H195.185C194.977 162.653 192.197 160.002 188.798 160.002C185.399 160.002 182.621 162.653 182.413 166H175.984C175.777 162.653 172.997 160.002 169.598 160.002C166.198 160.002 163.42 162.653 163.213 166H156.784C156.577 162.653 153.798 160.002 150.398 160.002C146.999 160.002 144.22 162.653 144.013 166H137.584C137.377 162.653 134.598 160.002 131.198 160.002C127.799 160.002 125.02 162.653 124.812 166H118.385C118.177 162.653 115.398 160.002 111.998 160.002C108.599 160.002 105.82 162.653 105.612 166H99.1846C98.9771 162.653 96.1974 160.002 92.7979 160.002C89.3985 160.002 86.6205 162.653 86.4131 166H79.9844C79.7769 162.653 76.9972 160.002 73.5977 160.002C70.1984 160.002 67.4204 162.653 67.2129 166H60.7842C60.5767 162.653 57.7978 160.002 54.3984 160.002C50.999 160.002 48.2202 162.653 48.0127 166H41.584C41.3765 162.653 38.5977 160.002 35.1982 160.002C31.7988 160.002 29.02 162.653 28.8125 166H22.3848C22.1772 162.653 19.3976 160.002 15.998 160.002C12.5986 160.002 9.81982 162.653 9.6123 166H0V156.801C3.53371 156.8 6.39812 153.936 6.39844 150.402C6.39844 146.868 3.5339 144.003 0 144.002V137.602C3.53377 137.601 6.39823 134.736 6.39844 131.202C6.39843 127.668 3.5339 124.803 0 124.802V118.401C3.53377 118.401 6.39823 115.536 6.39844 112.002C6.39833 108.468 3.53384 105.603 0 105.603V99.2012C3.53377 99.2003 6.39823 96.3357 6.39844 92.8018C6.39823 89.2678 3.53378 86.4032 0 86.4023V80.001C3.53364 80.0001 6.39802 77.1363 6.39844 73.6025C6.39844 70.0684 3.5339 67.203 0 67.2021V60.8008C3.53371 60.7999 6.39812 57.9362 6.39844 54.4023C6.39844 50.8682 3.5339 48.0028 0 48.002V41.6016C3.53377 41.6007 6.39823 38.7361 6.39844 35.2021C6.39844 31.668 3.5339 28.8026 0 28.8018V22.4014C3.53377 22.4005 6.39823 19.5359 6.39844 16.002C6.39833 12.4679 3.53384 9.60338 0 9.60254V0H9.59766V0.00195312C9.59787 3.53627 12.4637 6.40213 15.998 6.40234C19.5325 6.40234 22.3982 3.5364 22.3984 0.00195312V0H28.7979V0.00195312C28.7981 3.53627 31.6639 6.40213 35.1982 6.40234C38.7326 6.40224 41.5974 3.53633 41.5977 0.00195312V0H47.998V0.00195312C47.9983 3.53627 50.8641 6.40213 54.3984 6.40234C57.9328 6.40213 60.7976 3.53627 60.7979 0.00195312V0H67.1982V0.00195312C67.1985 3.53614 70.0635 6.40192 73.5977 6.40234C77.1321 6.40234 79.9978 3.5364 79.998 0.00195312V0H86.3984V0.00195312C86.3987 3.5362 89.2636 6.40203 92.7979 6.40234C96.3323 6.40234 99.198 3.5364 99.1982 0.00195312V0H105.598V0.00195312C105.598 3.53627 108.464 6.40213 111.998 6.40234C115.533 6.40234 118.398 3.5364 118.398 0.00195312V0H124.798V0.00195312C124.798 3.53627 127.664 6.40213 131.198 6.40234C134.733 6.40224 137.597 3.53633 137.598 0.00195312V0H143.998V0.00195312C143.998 3.53627 146.864 6.40213 150.398 6.40234C153.933 6.40213 156.798 3.53627 156.798 0.00195312V0H163.198V0.00195312C163.198 3.53614 166.064 6.40192 169.598 6.40234C173.132 6.40234 175.998 3.5364 175.998 0.00195312V0H182.398V0.00195312C182.399 3.5362 185.264 6.40203 188.798 6.40234C192.332 6.40234 195.198 3.5364 195.198 0.00195312V0H201.598V0.00195312C201.598 3.53626 204.464 6.40213 207.998 6.40234C211.533 6.40234 214.398 3.5364 214.398 0.00195312V0H224V9.60254Z"/>
</mask>
<path d="M224 9.60254H223.998C220.464 9.60275 217.598 12.4676 217.598 16.002C217.598 19.5363 220.464 22.4021 223.998 22.4023L224 22.4014V28.8018H223.998C220.464 28.802 217.598 31.6677 217.598 35.2021C217.598 38.7365 220.464 41.6023 223.998 41.6025L224 41.6016V48.002H223.998C220.464 48.0022 217.598 50.8679 217.598 54.4023C217.598 57.9366 220.464 60.8015 223.998 60.8018L224 60.8008V67.2021H223.998C220.464 67.2024 217.598 70.068 217.598 73.6025C217.598 77.1367 220.464 80.0017 223.998 80.002L224 80.001V86.4023H223.998C220.464 86.4026 217.598 89.2674 217.598 92.8018C217.598 96.3361 220.464 99.2019 223.998 99.2021L224 99.2012V105.603H223.998C220.464 105.603 217.598 108.468 217.598 112.002C217.598 115.536 220.464 118.402 223.998 118.402L224 118.401V124.802H223.998C220.464 124.802 217.598 127.668 217.598 131.202C217.598 134.736 220.464 137.602 223.998 137.603L224 137.602V144.002H223.998C220.464 144.002 217.598 146.868 217.598 150.402C217.598 153.937 220.464 156.802 223.998 156.802L224 156.801V166H214.385C214.177 162.653 211.398 160.002 207.998 160.002C204.599 160.002 201.82 162.653 201.612 166H195.185C194.977 162.653 192.197 160.002 188.798 160.002C185.399 160.002 182.621 162.653 182.413 166H175.984C175.777 162.653 172.997 160.002 169.598 160.002C166.198 160.002 163.42 162.653 163.213 166H156.784C156.577 162.653 153.798 160.002 150.398 160.002C146.999 160.002 144.22 162.653 144.013 166H137.584C137.377 162.653 134.598 160.002 131.198 160.002C127.799 160.002 125.02 162.653 124.812 166H118.385C118.177 162.653 115.398 160.002 111.998 160.002C108.599 160.002 105.82 162.653 105.612 166H99.1846C98.9771 162.653 96.1974 160.002 92.7979 160.002C89.3985 160.002 86.6205 162.653 86.4131 166H79.9844C79.7769 162.653 76.9972 160.002 73.5977 160.002C70.1984 160.002 67.4204 162.653 67.2129 166H60.7842C60.5767 162.653 57.7978 160.002 54.3984 160.002C50.999 160.002 48.2202 162.653 48.0127 166H41.584C41.3765 162.653 38.5977 160.002 35.1982 160.002C31.7988 160.002 29.02 162.653 28.8125 166H22.3848C22.1772 162.653 19.3976 160.002 15.998 160.002C12.5986 160.002 9.81982 162.653 9.6123 166H0V156.801C3.53371 156.8 6.39812 153.936 6.39844 150.402C6.39844 146.868 3.5339 144.003 0 144.002V137.602C3.53377 137.601 6.39823 134.736 6.39844 131.202C6.39843 127.668 3.5339 124.803 0 124.802V118.401C3.53377 118.401 6.39823 115.536 6.39844 112.002C6.39833 108.468 3.53384 105.603 0 105.603V99.2012C3.53377 99.2003 6.39823 96.3357 6.39844 92.8018C6.39823 89.2678 3.53378 86.4032 0 86.4023V80.001C3.53364 80.0001 6.39802 77.1363 6.39844 73.6025C6.39844 70.0684 3.5339 67.203 0 67.2021V60.8008C3.53371 60.7999 6.39812 57.9362 6.39844 54.4023C6.39844 50.8682 3.5339 48.0028 0 48.002V41.6016C3.53377 41.6007 6.39823 38.7361 6.39844 35.2021C6.39844 31.668 3.5339 28.8026 0 28.8018V22.4014C3.53377 22.4005 6.39823 19.5359 6.39844 16.002C6.39833 12.4679 3.53384 9.60338 0 9.60254V0H9.59766V0.00195312C9.59787 3.53627 12.4637 6.40213 15.998 6.40234C19.5325 6.40234 22.3982 3.5364 22.3984 0.00195312V0H28.7979V0.00195312C28.7981 3.53627 31.6639 6.40213 35.1982 6.40234C38.7326 6.40224 41.5974 3.53633 41.5977 0.00195312V0H47.998V0.00195312C47.9983 3.53627 50.8641 6.40213 54.3984 6.40234C57.9328 6.40213 60.7976 3.53627 60.7979 0.00195312V0H67.1982V0.00195312C67.1985 3.53614 70.0635 6.40192 73.5977 6.40234C77.1321 6.40234 79.9978 3.5364 79.998 0.00195312V0H86.3984V0.00195312C86.3987 3.5362 89.2636 6.40203 92.7979 6.40234C96.3323 6.40234 99.198 3.5364 99.1982 0.00195312V0H105.598V0.00195312C105.598 3.53627 108.464 6.40213 111.998 6.40234C115.533 6.40234 118.398 3.5364 118.398 0.00195312V0H124.798V0.00195312C124.798 3.53627 127.664 6.40213 131.198 6.40234C134.733 6.40224 137.597 3.53633 137.598 0.00195312V0H143.998V0.00195312C143.998 3.53627 146.864 6.40213 150.398 6.40234C153.933 6.40213 156.798 3.53627 156.798 0.00195312V0H163.198V0.00195312C163.198 3.53614 166.064 6.40192 169.598 6.40234C173.132 6.40234 175.998 3.5364 175.998 0.00195312V0H182.398V0.00195312C182.399 3.5362 185.264 6.40203 188.798 6.40234C192.332 6.40234 195.198 3.5364 195.198 0.00195312V0H201.598V0.00195312C201.598 3.53626 204.464 6.40213 207.998 6.40234C211.533 6.40234 214.398 3.5364 214.398 0.00195312V0H224V9.60254Z" stroke="#7E7EBE" stroke-opacity="0.3" stroke-width="2" mask="url(#path-1-inside-1_14470_10962)"/>
<rect x="18.5" y="18.5" width="187" height="129" stroke="#7E7EBE" stroke-opacity="0.3"/>
</svg>
